<svg width="240" height="46" viewBox="0 0 240 46" fill="none" xmlns="http://www.w3.org/2000/svg">
<path fill-rule="evenodd" clip-rule="evenodd" d="M201.482 15.4307C200.556 13.0785 199.063 11.1445 196.785 9.80866C194.723 8.5948 192.439 8.01981 190.044 7.83976C186.458 7.57259 182.903 7.78167 179.397 8.55412C178.045 8.85033 176.736 9.31495 175.409 9.70409C175.187 9.76797 174.983 9.82027 174.761 9.69831C173.848 9.19302 172.86 8.86196 171.842 8.60641C168.533 7.78168 165.163 7.4971 161.749 7.70037C159.385 7.83976 157.077 8.22307 154.836 8.94906C152.738 9.62859 150.75 10.523 148.997 11.8356C148.793 11.9866 148.738 12.1434 148.738 12.3758C148.738 20.4662 148.738 28.5567 148.738 36.6471C148.738 39.5104 148.75 42.3737 148.762 45.2429C148.762 45.3416 148.769 45.4403 148.775 45.5333H159.243C159.243 45.4578 159.256 45.3939 159.256 45.33C159.243 44.4356 159.225 43.547 159.225 42.6525C159.225 34.5331 159.225 26.4135 159.225 18.2941C159.225 18.2127 159.225 18.1256 159.225 18.0443C159.237 17.6784 159.318 17.5622 159.688 17.4693C160.237 17.3415 160.793 17.2021 161.354 17.1208C162.922 16.8885 164.496 16.7607 166.07 17.0395C167.465 17.2834 168.65 17.8584 169.453 19.0084C170.187 20.0597 170.428 21.2503 170.44 22.4816C170.459 24.3111 170.453 26.1464 170.447 27.9759C170.434 33.778 170.422 39.5802 170.41 45.3823C170.41 45.4288 170.422 45.4694 170.422 45.5159H180.915V45.1325C180.915 37.5706 180.921 30.0086 180.934 22.4525C180.934 21.047 180.971 19.6473 180.996 18.2418C181.002 17.8062 181.076 17.7132 181.514 17.5797C181.804 17.4925 182.094 17.4054 182.384 17.3299C184.279 16.8595 186.187 16.6968 188.119 17.1499C189.396 17.4461 190.47 18.0327 191.205 19.0897C191.946 20.1526 192.168 21.3606 192.168 22.6035C192.168 30.148 192.143 37.6868 192.131 45.2313V45.5333H202.643V44.9293C202.643 37.3789 202.667 29.8286 202.655 22.2725C202.655 19.9377 202.353 17.6378 201.482 15.4307ZM24.2372 0.115189L23.9903 7.92686C23.9903 7.92686 21.2682 7.92686 19.935 7.92686C17.2005 7.92105 14.5093 8.18241 11.886 8.94325C9.34905 9.68085 7.03432 10.8076 5.07762 12.521C1.83085 15.3668 0.701277 18.9852 0.182783 23.074C-0.0209119 24.677 -0.0147514 26.2858 0.0161114 27.8946C0.0469742 29.6369 0.244499 31.3619 0.713614 33.052C2.01602 37.7564 4.44186 41.2819 9.10832 43.4076C12.1946 44.8189 15.4969 45.3939 18.8918 45.4229C24.3298 45.4694 29.3419 45.4404 34.78 45.4404C34.854 45.4404 34.9281 45.4287 35.0269 45.4229V45.1848C35.0145 32.5119 35.0022 6.38196 35.0022 6.38196L24.2372 0.109375V0.115189ZM24.4409 36.1244C24.4409 36.653 24.3237 36.7691 23.7681 36.7633C22.3731 36.7575 20.9781 36.7691 19.5893 36.7284C18.1573 36.682 16.7623 36.4264 15.4413 35.8805C13.139 34.9222 11.7625 33.2379 11.1885 30.9379C10.7934 29.3698 10.8428 27.0002 10.886 25.4088C10.9168 24.2937 11.1144 23.2076 11.5218 22.1621C12.4044 19.8854 14.1513 18.5031 16.5771 17.8294C17.8857 17.4635 19.2313 17.3299 20.5893 17.3241C21.6571 17.3241 22.7311 17.3241 23.799 17.3241C24.3051 17.3241 24.4471 17.4635 24.4471 17.934C24.4471 20.8437 24.4471 24.1368 24.4471 27.0466V36.1302L24.4409 36.1244ZM139.325 16.813C138.121 13.0843 135.658 10.4533 131.782 9.05941C129.411 8.20565 126.936 7.89201 124.424 7.89201C119.548 7.88039 114.665 7.91524 109.789 7.92686C109.233 7.92686 108.678 7.92686 108.073 7.92686C108.141 8.07206 108.184 8.1708 108.233 8.26373C109.628 10.9121 111.03 13.5606 112.418 16.209C112.523 16.4123 112.653 16.4762 112.888 16.4762C116.381 16.4704 119.875 16.4646 123.375 16.482C124.035 16.482 124.708 16.5459 125.362 16.6562C126.609 16.8653 127.689 17.3822 128.486 18.3405C129.473 19.5311 129.702 20.9367 129.708 22.3886C129.708 22.7603 129.51 22.8823 129.072 22.8591C126.078 22.7197 123.085 22.6384 120.097 22.8416C118.233 22.9694 116.394 23.1959 114.597 23.7245C111.369 24.6653 109.295 26.6284 108.61 29.8054C108.166 31.873 108.085 33.9581 108.369 36.0489C108.653 38.1398 109.536 39.9925 111.079 41.5316C112.462 42.9139 114.165 43.8083 116.042 44.4298C118.406 45.208 120.856 45.481 123.338 45.481C128.837 45.481 134.331 45.452 139.831 45.4287C139.948 45.4287 140.059 45.4287 140.207 45.4287V45.1267C140.207 37.6577 140.22 30.1945 140.201 22.7255C140.201 20.7218 139.96 18.7355 139.337 16.8072L139.325 16.813ZM129.708 37.5183C129.708 38.0352 129.56 38.163 129.029 38.163C127.813 38.163 126.597 38.163 125.381 38.163V38.0759C124.152 38.0759 122.924 38.1165 121.702 38.0585C121.066 38.0294 120.418 37.8958 119.807 37.71C118.387 37.2802 117.622 36.2987 117.486 34.9164C117.424 34.3065 117.449 33.6677 117.542 33.0636C117.739 31.8149 118.548 31.0193 119.782 30.6069C120.869 30.241 122.004 30.1596 123.146 30.1771C125.115 30.2119 127.091 30.27 129.06 30.3165C129.566 30.3281 129.708 30.4617 129.708 30.9379C129.708 33.1333 129.708 35.3229 129.708 37.5183ZM101.456 17.8817C100.135 13.4038 97.2216 10.3139 92.5551 8.75739C90.7157 8.14175 88.8084 7.87461 86.8702 7.80491C84.1851 7.71199 81.5371 7.91524 78.9693 8.72836C75.167 9.9306 72.3894 12.2189 70.7537 15.7095C69.6858 17.9862 69.2414 20.3965 69.192 22.8707C69.1426 25.3159 69.1611 27.761 69.1735 30.2061C69.1735 31.0193 69.192 31.844 69.3093 32.6513C69.4697 33.778 69.6426 34.9222 69.9635 36.0141C71.1795 40.1319 73.877 42.9894 78.1484 44.4762C80.4754 45.2835 82.8889 45.5797 85.3456 45.5856C90.2713 45.603 95.2031 45.5855 100.129 45.5739C100.647 45.5739 101.16 45.5739 101.721 45.5739C101.672 45.4868 101.647 45.4462 101.623 45.4113C99.9683 43.0185 98.3141 40.6256 96.6475 38.2385C96.5858 38.1514 96.413 38.0817 96.2895 38.0817C93.1292 38.0585 89.9688 38.041 86.8085 38.0294C85.5307 38.0294 84.2592 38.0352 83.0062 37.7332C81.5062 37.3673 80.352 36.6007 79.7594 35.1951C79.3644 34.2659 79.2533 33.2901 79.2594 32.297C79.2594 31.7104 79.3705 31.6 80.0001 31.6H102.123V31.3213C102.123 28.3941 102.129 25.461 102.123 22.5338C102.116 20.9541 101.913 19.3975 101.468 17.8759L101.456 17.8817ZM92.4996 23.5909C92.4934 23.9394 92.3082 24.0671 91.8823 24.0671C89.8824 24.0671 87.8763 24.0671 85.8764 24.0671C83.8765 24.0671 81.9136 24.0671 79.9261 24.0671C79.3891 24.0671 79.2594 23.9336 79.2533 23.4167C79.2409 22.348 79.2533 21.2793 79.5434 20.2339C80.0989 18.2243 81.4075 16.9234 83.5432 16.4065C85.148 16.0173 86.7529 16.0348 88.3393 16.4703C90.475 17.057 91.7403 18.4276 92.2588 20.4546C92.5243 21.4884 92.5181 22.5396 92.4934 23.5851L92.4996 23.5909ZM239.944 32.7791C239.727 29.9157 238.289 27.761 235.74 26.2393C234.351 25.4146 232.876 24.7641 231.314 24.3053C229.191 23.678 227.037 23.1437 224.901 22.5571C223.74 22.2376 222.586 21.9008 221.568 21.2619C220.969 20.8844 220.481 20.4197 220.327 19.7344C220.006 18.3231 220.623 16.9815 222.376 16.5459C223.944 16.1567 225.518 16.3019 227.074 16.5807C229.141 16.9466 231.135 17.5739 233.129 18.1895C234.135 18.5031 235.135 18.8342 236.184 19.1711C236.184 19.0549 236.184 18.9677 236.184 18.8864C236.16 16.2903 236.129 13.7 236.123 11.1038C236.123 10.8483 236.03 10.7089 235.808 10.6101C234.802 10.1687 233.826 9.66927 232.796 9.29756C230.049 8.3044 227.185 7.83973 224.253 7.741C222.185 7.6713 220.136 7.84557 218.148 8.46121C215.142 9.38468 212.797 11.0806 211.389 13.8045C210.223 16.0696 209.852 18.4741 210.179 20.9715C210.482 23.254 211.636 25.0777 213.58 26.46C215.451 27.79 217.506 28.789 219.734 29.4279C221.611 29.9622 223.518 30.4036 225.407 30.8915C226.685 31.2225 227.963 31.5594 229.135 32.1692C229.864 32.5467 230.512 33.023 230.74 33.8245C231.123 35.1429 230.666 36.7575 228.839 37.3615C228.061 37.617 227.259 37.7274 226.438 37.739C224.778 37.7623 223.154 37.5241 221.543 37.1582C218.796 36.531 216.111 35.7004 213.439 34.8351C213.34 34.806 213.247 34.7712 213.124 34.7305C213.124 34.8641 213.124 34.957 213.124 35.0499C213.142 37.6345 213.161 40.219 213.167 42.8036C213.167 43.0359 213.229 43.1462 213.476 43.2159C215.334 43.7096 217.179 44.2555 219.049 44.7085C221.642 45.33 224.265 45.7772 226.956 45.7366C229.228 45.7017 231.432 45.359 233.505 44.4472C236.536 43.1172 238.635 40.9973 239.536 37.9133C240.024 36.2406 240.067 34.5156 239.937 32.7906L239.944 32.7791ZM43.6499 45.5449H54.0816C54.1063 44.6447 54.1433 43.7618 54.1433 42.879C54.1433 34.4343 54.1433 25.9895 54.1433 17.5448C54.1433 17.0221 54.2729 16.8769 54.7605 16.8653C56.5938 16.8304 58.4332 16.784 60.2664 16.7666C60.5442 16.7666 60.6739 16.6736 60.8035 16.4529C62.3343 13.7754 63.8836 11.1038 65.4267 8.43215C65.5132 8.28114 65.5996 8.12436 65.6983 7.95592H43.6437V45.5449H43.6499Z" fill="white"/>
<path fill-rule="evenodd" clip-rule="evenodd" d="M205.402 0V10.8492L216.001 15.6117L216.013 4.72765L205.402 0Z" fill="#00E9B1"/>
</svg>
