<svg width="140" height="30" viewBox="0 0 140 30" fill="none" xmlns="http://www.w3.org/2000/svg">
<path fill-rule="evenodd" clip-rule="evenodd" d="M117.534 10.3894C116.994 8.93112 116.123 7.73207 114.794 6.9039C113.592 6.15134 112.259 5.79486 110.862 5.68324C108.77 5.5176 106.696 5.64722 104.651 6.12612C103.862 6.30976 103.099 6.59781 102.325 6.83906C102.195 6.87867 102.076 6.9111 101.947 6.83548C101.414 6.52222 100.838 6.31697 100.244 6.15854C98.3136 5.64723 96.3476 5.4708 94.3564 5.59682C92.9773 5.68324 91.6306 5.92088 90.3235 6.37097C89.0993 6.79226 87.9398 7.34679 86.9172 8.16056C86.7984 8.25418 86.766 8.35139 86.766 8.49542C86.766 13.5113 86.766 18.5271 86.766 23.543C86.766 25.3181 86.7732 27.0933 86.7804 28.8721C86.7804 28.9333 86.784 28.9945 86.7876 29.0521H92.8945C92.8945 29.0053 92.9017 28.9657 92.9017 28.9261C92.8945 28.3716 92.8837 27.8207 92.8837 27.2661C92.8837 22.2323 92.8837 17.1984 92.8837 12.1646C92.8837 12.1142 92.8837 12.0602 92.8837 12.0098C92.8909 11.7829 92.9377 11.7109 93.1537 11.6533C93.4742 11.5741 93.7982 11.4876 94.1259 11.4372C95.0405 11.2932 95.9587 11.214 96.8769 11.3868C97.6907 11.538 98.382 11.8945 98.8501 12.6075C99.2786 13.2592 99.419 13.9974 99.4262 14.7607C99.437 15.895 99.4334 17.0328 99.4298 18.167C99.4226 21.7642 99.4154 25.3614 99.4082 28.9585C99.4082 28.9873 99.4154 29.0125 99.4154 29.0413H105.537V28.8037C105.537 24.1155 105.54 19.4273 105.547 14.7427C105.547 13.8713 105.569 13.0036 105.584 12.1322C105.587 11.8621 105.63 11.8045 105.886 11.7217C106.055 11.6677 106.224 11.6137 106.394 11.5669C107.499 11.2752 108.612 11.1744 109.739 11.4552C110.484 11.6389 111.111 12.0026 111.539 12.6579C111.971 13.3168 112.101 14.0658 112.101 14.8363C112.101 19.5137 112.086 24.1875 112.079 28.8649V29.0521H118.211C118.211 28.9153 118.211 28.7965 118.211 28.6776C118.211 23.9967 118.226 19.3157 118.219 14.6311C118.219 13.1836 118.042 11.7577 117.534 10.3894ZM14.1388 0.894229L13.9948 5.73723C13.9948 5.73723 12.4069 5.73723 11.6291 5.73723C10.034 5.73363 8.46404 5.89567 6.93372 6.36737C5.45381 6.82466 4.10352 7.52322 2.96208 8.58544C1.06809 10.3498 0.40915 12.5931 0.106687 15.128C-0.0121379 16.1218 -0.00854416 17.1192 0.0094596 18.1166C0.0274634 19.1968 0.142689 20.2663 0.416346 21.3141C1.17611 24.2307 2.59121 26.4164 5.31338 27.7342C7.11376 28.6092 9.04015 28.9657 11.0206 28.9837C14.1928 29.0125 17.1166 28.9945 20.2889 28.9945C20.3321 28.9945 20.3753 28.9873 20.4329 28.9837V28.8361C20.4257 20.9792 20.4185 4.77944 20.4185 4.77944L14.1388 0.890625V0.894229ZM14.254 23.2189C14.254 23.5466 14.1856 23.6186 13.8616 23.615C13.0478 23.6114 12.234 23.6186 11.4238 23.5934C10.5885 23.5646 9.77471 23.4061 9.00415 23.0677C7.66107 22.4735 6.8581 21.4293 6.52323 20.0034C6.29278 19.0312 6.32159 17.5621 6.3468 16.5755C6.3648 15.8842 6.48001 15.2108 6.71766 14.5627C7.23257 13.1512 8.25158 12.2942 9.66308 11.8765C10.4264 11.6497 11.2114 11.5668 12.0036 11.5632C12.6265 11.5632 13.253 11.5632 13.876 11.5632C14.1712 11.5632 14.254 11.6497 14.254 11.9413C14.254 13.7453 14.254 15.787 14.254 17.5909C14.254 19.3949 14.254 21.4293 14.254 23.2225V23.2189ZM81.2712 11.2464C80.5691 8.93472 79.1324 7.30357 76.8711 6.43939C75.4884 5.91008 74.0445 5.71563 72.579 5.71563C69.7344 5.70843 66.8862 5.73003 64.0416 5.73723C63.7176 5.73723 63.3935 5.73723 63.0406 5.73723C63.0802 5.82725 63.1054 5.88847 63.1342 5.94608C63.948 7.58803 64.7654 9.22997 65.5756 10.8719C65.6368 10.9979 65.7124 11.0376 65.8492 11.0376C67.8873 11.034 69.9253 11.0304 71.9669 11.0412C72.3522 11.0412 72.7447 11.0808 73.1263 11.1492C73.8501 11.2788 74.4838 11.5993 74.9483 12.1934C75.5244 12.9315 75.6577 13.8029 75.6613 14.7031C75.6613 14.9336 75.546 15.0092 75.2904 14.9948C73.544 14.9084 71.7977 14.8579 70.0549 14.984C68.9675 15.0632 67.8944 15.2036 66.8466 15.5313C64.9634 16.1146 63.7536 17.3317 63.3539 19.3013C63.0947 20.5832 63.0478 21.8758 63.2135 23.1721C63.3791 24.4684 63.894 25.617 64.7942 26.5712C65.6008 27.4282 66.5946 27.9827 67.6892 28.368C69.0683 28.8505 70.4978 29.0197 71.9453 29.0197C75.1536 29.0197 78.3582 29.0017 81.5665 28.9873C81.6349 28.9873 81.6997 28.9873 81.7861 28.9873V28.8001C81.7861 24.1695 81.7934 19.5425 81.7826 14.912C81.7826 13.6697 81.6421 12.4382 81.2784 11.2428L81.2712 11.2464ZM75.6613 24.0831C75.6613 24.4035 75.5748 24.4827 75.2652 24.4827C74.5558 24.4827 73.8465 24.4827 73.1371 24.4827C73.1371 24.4647 73.1371 24.4468 73.1371 24.4288C72.4206 24.4288 71.704 24.4539 70.9911 24.4179C70.6202 24.3999 70.2421 24.3171 69.8857 24.2019C69.0575 23.9354 68.611 23.3269 68.5318 22.4699C68.4958 22.0919 68.5102 21.6958 68.5642 21.3213C68.6794 20.5471 69.1511 20.0538 69.8713 19.7982C70.505 19.5713 71.1675 19.5209 71.8337 19.5317C72.9823 19.5533 74.1345 19.5893 75.2832 19.6182C75.5784 19.6254 75.6613 19.7082 75.6613 20.0034C75.6613 21.3645 75.6613 22.722 75.6613 24.0831ZM59.1806 11.9089C58.4101 9.13275 56.7105 7.21714 53.9883 6.25214C52.9153 5.87046 51.8027 5.70484 50.672 5.66163C49.1057 5.60402 47.561 5.73003 46.0631 6.23414C43.845 6.9795 42.2247 8.3982 41.2705 10.5623C40.6476 11.9737 40.3883 13.4681 40.3595 15.002C40.3307 16.5179 40.3415 18.0338 40.3487 19.5497C40.3487 20.0538 40.3595 20.5651 40.4279 21.0656C40.5215 21.7642 40.6223 22.4735 40.8096 23.1505C41.5189 25.7034 43.0925 27.475 45.5842 28.3968C46.9417 28.8973 48.3496 29.0809 49.7827 29.0845C52.6561 29.0953 55.5331 29.0845 58.4065 29.0773C58.7089 29.0773 59.0078 29.0773 59.3355 29.0773C59.3067 29.0233 59.2923 28.9981 59.2779 28.9765C58.3129 27.493 57.3479 26.0095 56.3756 24.5296C56.3396 24.4756 56.2388 24.4324 56.1668 24.4324C54.3232 24.418 52.4796 24.4071 50.636 24.3999C49.8907 24.3999 49.1489 24.4035 48.418 24.2163C47.543 23.9895 46.8696 23.5142 46.524 22.6428C46.2935 22.0667 46.2287 21.4617 46.2323 20.846C46.2323 20.4823 46.2971 20.4139 46.6644 20.4139H59.5695V20.2411C59.5695 18.4263 59.5731 16.6079 59.5695 14.7931C59.5659 13.8137 59.4471 12.8487 59.1878 11.9053L59.1806 11.9089ZM53.9559 15.4485C53.9523 15.6645 53.8443 15.7437 53.5959 15.7437C52.4292 15.7437 51.259 15.7437 50.0923 15.7437C48.9257 15.7437 47.7806 15.7437 46.6212 15.7437C46.3079 15.7437 46.2323 15.6609 46.2287 15.3405C46.2215 14.6779 46.2287 14.0154 46.398 13.3672C46.722 12.1214 47.4854 11.3148 48.7312 10.9943C49.6674 10.7531 50.6036 10.7639 51.529 11.0339C52.7749 11.3976 53.513 12.2474 53.8155 13.5041C53.9703 14.145 53.9667 14.7967 53.9523 15.4449L53.9559 15.4485ZM139.967 21.1449C139.841 19.3697 139.002 18.0338 137.515 17.0904C136.705 16.5791 135.844 16.1758 134.933 15.8914C133.695 15.5025 132.438 15.1712 131.192 14.8075C130.515 14.6095 129.842 14.4007 129.248 14.0046C128.898 13.7705 128.614 13.4825 128.524 13.0576C128.337 12.1826 128.697 11.3508 129.719 11.0808C130.634 10.8395 131.552 10.9295 132.46 11.1024C133.666 11.3292 134.829 11.7181 135.992 12.0998C136.579 12.2942 137.162 12.4995 137.774 12.7083C137.774 12.6363 137.774 12.5823 137.774 12.5319C137.76 10.9223 137.742 9.31639 137.738 7.70686C137.738 7.54842 137.684 7.46199 137.555 7.40078C136.968 7.12712 136.399 6.81748 135.797 6.58703C134.195 5.9713 132.524 5.68322 130.814 5.62201C129.604 5.5788 128.412 5.68684 127.253 6.06852C125.499 6.64104 124.131 7.69244 123.31 9.38119C122.629 10.7855 122.413 12.2762 122.604 13.8245C122.781 15.2396 123.454 16.3703 124.588 17.2272C125.679 18.0518 126.878 18.6711 128.178 19.0672C129.273 19.3985 130.385 19.6722 131.487 19.9746C132.233 20.1799 132.978 20.3887 133.662 20.7668C134.087 21.0008 134.465 21.2961 134.598 21.793C134.822 22.6104 134.555 23.6114 133.489 23.9858C133.036 24.1443 132.568 24.2127 132.089 24.2199C131.12 24.2343 130.173 24.0867 129.233 23.8598C127.631 23.4709 126.065 22.956 124.505 22.4195C124.448 22.4015 124.394 22.3799 124.322 22.3547C124.322 22.4375 124.322 22.4951 124.322 22.5528C124.333 24.1551 124.343 25.7574 124.347 27.3598C124.347 27.5038 124.383 27.5722 124.527 27.6154C125.611 27.9215 126.688 28.2599 127.779 28.5408C129.291 28.9261 130.821 29.2034 132.391 29.1781C133.716 29.1565 135.002 28.9441 136.212 28.3788C137.979 27.5542 139.204 26.2399 139.729 24.3279C140.014 23.2909 140.039 22.2215 139.964 21.1521L139.967 21.1449ZM25.4596 29.0593H31.5449C31.5593 28.5012 31.5809 27.9539 31.5845 27.4066C31.5845 22.1711 31.5845 16.9356 31.5845 11.7001C31.5845 11.376 31.6601 11.286 31.9445 11.2788C33.014 11.2572 34.087 11.2284 35.1564 11.2176C35.3184 11.2176 35.3941 11.16 35.4697 11.0231C36.3627 9.36319 37.2665 7.70684 38.1666 6.0505C38.217 5.95688 38.2675 5.85968 38.3251 5.75526H25.4596V29.0593Z" fill="black"/>
<path fill-rule="evenodd" clip-rule="evenodd" d="M119.824 0.820312V7.54652L126.007 10.4991L126.014 3.75132L119.824 0.820312Z" fill="#00E9B2"/>
</svg>
